/* XPM */
static char *iWedia_xpm[] = {
/* columns rows colors chars-per-pixel */
"50 41 66 1 ",
"  c #002E8B",
". c #00348E",
"X c #003790",
"o c #003C92",
"O c #014296",
"+ c #064698",
"@ c #094798",
"# c #074899",
"$ c #0C4B9B",
"% c #114E9D",
"& c #15519E",
"* c #18539F",
"= c #1B56A1",
"- c #1F58A2",
"; c #245DA4",
": c #2A61A6",
"> c #2E63A8",
", c #3166A9",
"< c #3469AB",
"1 c #3B6EAE",
"2 c #3E70AF",
"3 c #3F71B0",
"4 c #4471AF",
"5 c #4374B1",
"6 c #4877B4",
"7 c #4D7BB5",
"8 c #517DB6",
"9 c #537FB8",
"0 c #5682B9",
"q c #5B85BB",
"w c #5E88BD",
"e c #638BBE",
"r c #678FC1",
"t c #698FC1",
"y c #6D92C2",
"u c #7196C4",
"i c #799CC7",
"p c #779BC8",
"a c #7C9EC9",
"s c #7FA0CA",
"d c #84A3CC",
"f c #88A7CE",
"g c #8CA9CF",
"h c #8DABD0",
"j c #96B1D3",
"k c #9AB4D5",
"l c #A0B9D7",
"z c #A4BBD9",
"x c #ADC2DD",
"c c #B1C5DF",
"v c #B5C7E0",
"b c #B7CAE1",
"n c #BACCE2",
"m c #C3D3E6",
"M c #C8D6E8",
"N c #CDDAEA",
"B c #D2DEEC",
"V c #D6E1EE",
"C c #DBE4EF",
"Z c #DCE5F0",
"A c #DFE8F2",
"S c #E1E9F2",
"D c #EAEFF6",
"F c #EFF3F8",
"G c #F1F4F8",
"H c #FFFFFF",
/* pixels */
"HHHHHHHHFNvjgsyw951,:;=====-;:,159wyshjvNGHHHHHHHH",
"HHHHq%..oO+$$%%%%****======*******%%%%$OOo.X%qHHHH",
"HHB %*=-=====================================% ZHH",
"HG ===========================================- HH",
"H5&============================================%7H",
"H.==============================================oH",
"HX=============================================-.H",
"NO==============================================OC",
"l$==&%&================%$%%================&%&==+x",
"aX.&27:o-============-X8sa7X==============o>72%..d",
"bBHHHHHno============XFHHHHDX============XNHHHHHBn",
"HHHHHHHH;*==========%yHHHHHHe%==========&<HHHHHHHH",
"HNkkSHHHz#==========oSHHHHHHVo==========OcHHHCklBH",
"4X++.qHHH.==========.HHHHHHHH.==========XHHH7.++.8",
"7&===.GHH6%========&,HHHHHHHH;*========%0HHS.-==&0",
"3====%wHHk$========%yHHHHHHHHe%========+zHHq%===&6",
"<&====.HHH.-=======$kHHHHHHHHg$========.HHH.====&2",
":=====OcHH%========oSHHHHHHHHBO=======*;HHl+====*<",
";*====%0HHt%=======.HHHHHHHHHH =======%uHH5&=====:",
"=======.HHz+======&-HHHHHHHHHH%=======ObHH.======;",
"*======OnHH.======%qHHHHHHHHHH8%=====- HHz+======;",
"=======%eHHO======$fHHHe+$tHHHd$=====*%HHq%=====*;",
"*=======oHHe%=====XSHH<+=&O5HHBo=====%yHHX=======;",
"-======-oAHAX=====$HHMX-==-.VHHO*===-.FHBo=======;",
";=======%iHH,%==-.nHH4&====&7HHcX-==%1HHu%======&>",
":*======&;HHHOo$ pHHH.======.HHHt $O@HHH**======*<",
"<*======-.HHHHchGHHHcO======omHHHDhbHHHH.=======&3",
"5*=======+lHHHHHHHHHt%======%uHHHHHHHHHj$=======&7",
"0&=======%qHHHHHHHHH-&======*>HHHHHHHHH8%=======&w",
"r%========OHHHHHHHHH.========.HHHHHHHHHX========%y",
"p%========XDHHHHHHHMO========oVHHHHHHHCo========%d",
"g$========$gHHHHHHHa%========$fHHHHHHHa%========$h",
"l$========&3HHHHHHH<&========&5HHHHHHH,&========+c",
"NO=========.HHHHHHH.==========.HHHHHHH.=========OC",
"HX=========$jHHHHHl#==========+xHHHHHf$========-XH",
"H.==========.MHHHHO*===========@HHHHn.==========XH",
"H>&==========o1fpO&============*Oad<o==========&1H",
"HB.===========&$%===============*%%&=========== SH",
"HHj =======================================-=& zHH",
"HHHB; XOO$%%%&&&=================**&&%%%$OOX >CHHH",
"HHHHHHHCnkgar05,;===============-;<50rahknZHHHHHHH"
};
